<?xml version="1.0" encoding="UTF-8"?>
<svg id="Ebene_1" xmlns="http://www.w3.org/2000/svg" version="1.1" viewBox="0 0 419.5 297.6">
  <!-- Generator: Adobe Illustrator 29.3.1, SVG Export Plug-In . SVG Version: 2.1.0 Build 151)  -->
  <defs>
    <style>
      .st0 {
        fill: #1cffca;
      }
    </style>
  </defs>
  <g>
    <rect class="st0" x="247.3" y="178.5" width="34.8" height="9.3"/>
    <g>
      <g>
        <polygon class="st0" points="191.6 141.3 182.4 141.3 182.4 150.6 191.6 150.6 191.6 178.5 200.9 178.5 200.9 113.5 191.6 113.5 191.6 141.3"/>
        <rect class="st0" x="173.1" y="132.1" width="9.3" height="9.3"/>
        <polygon class="st0" points="163.8 122.8 163.8 113.5 154.5 113.5 154.5 178.5 163.8 178.5 163.8 132.1 173.1 132.1 173.1 122.8 163.8 122.8"/>
      </g>
      <g>
        <polygon class="st0" points="219.5 122.8 210.2 122.8 210.2 178.5 219.5 178.5 219.5 159.9 247.3 159.9 247.3 150.6 219.5 150.6 219.5 122.8"/>
        <rect class="st0" x="219.5" y="113.5" width="27.8" height="9.3"/>
        <rect class="st0" x="247.3" y="122.8" width="9.3" height="27.8"/>
      </g>
    </g>
  </g>
  <polygon class="st0" points="247.3 206.5 123.1 206.5 123.1 82.6 300.2 82.6 300.2 187.7 291.4 187.7 291.4 91.5 131.9 91.5 131.9 197.7 247.3 197.7 247.3 206.5"/>
</svg>